<mxfile host="app.diagrams.net" modified="2023-09-22T04:50:37.788Z" agent="5.0 (Windows NT 10.0; Win64; x64) AppleWebKit/537.36 (KHTML, like Gecko) Chrome/116.0.0.0 Safari/537.36" etag="R-T1vplu14x_xaEQcKG1" version="20.5.1" type="github">
  <diagram id="_AmcQm_ejjaGFm0qRGu8" name="Page-1">
    <mxGraphModel dx="1185" dy="650" grid="1" gridSize="10" guides="1" tooltips="1" connect="1" arrows="1" fold="1" page="1" pageScale="1" pageWidth="850" pageHeight="1100" math="0" shadow="0">
      <root>
        <mxCell id="0" />
        <mxCell id="1" parent="0" />
        <mxCell id="tp16z03s1btoaDQK9-HY-1" value="slik-scraper&lt;br&gt;Operator" style="shape=process;whiteSpace=wrap;html=1;backgroundOutline=1;" vertex="1" parent="1">
          <mxGeometry x="210" y="150" width="120" height="60" as="geometry" />
        </mxCell>
        <mxCell id="tp16z03s1btoaDQK9-HY-2" value="Mas Febri" style="rounded=1;whiteSpace=wrap;html=1;" vertex="1" parent="1">
          <mxGeometry x="40" y="40" width="120" height="60" as="geometry" />
        </mxCell>
        <mxCell id="tp16z03s1btoaDQK9-HY-3" value="" style="endArrow=classic;html=1;rounded=0;exitX=1;exitY=0.5;exitDx=0;exitDy=0;" edge="1" parent="1" source="tp16z03s1btoaDQK9-HY-2" target="tp16z03s1btoaDQK9-HY-1">
          <mxGeometry width="50" height="50" relative="1" as="geometry">
            <mxPoint x="390" y="370" as="sourcePoint" />
            <mxPoint x="440" y="320" as="targetPoint" />
          </mxGeometry>
        </mxCell>
        <mxCell id="tp16z03s1btoaDQK9-HY-5" value="&lt;div style=&quot;text-align: left;&quot;&gt;&lt;span style=&quot;background-color: initial;&quot;&gt;# buat browser baru&lt;/span&gt;&lt;/div&gt;&lt;div style=&quot;text-align: left;&quot;&gt;&lt;span style=&quot;background-color: initial;&quot;&gt;# login&lt;/span&gt;&lt;/div&gt;&lt;div style=&quot;text-align: left;&quot;&gt;&lt;span style=&quot;background-color: initial;&quot;&gt;# upload&lt;/span&gt;&lt;/div&gt;&lt;div style=&quot;text-align: left;&quot;&gt;&lt;span style=&quot;background-color: initial;&quot;&gt;# standby == true ? refresh : auto logour&lt;/span&gt;&lt;/div&gt;&lt;div style=&quot;text-align: left;&quot;&gt;&lt;span style=&quot;background-color: initial;&quot;&gt;&lt;br&gt;&lt;/span&gt;&lt;/div&gt;&lt;div style=&quot;text-align: left;&quot;&gt;&lt;span style=&quot;background-color: initial;&quot;&gt;&lt;br&gt;&lt;/span&gt;&lt;/div&gt;&lt;div style=&quot;text-align: left;&quot;&gt;&lt;span style=&quot;background-color: initial;&quot;&gt;# body....&lt;/span&gt;&lt;/div&gt;&lt;div style=&quot;text-align: left;&quot;&gt;&lt;span style=&quot;background-color: initial;&quot;&gt;[&lt;/span&gt;&lt;/div&gt;&lt;div style=&quot;text-align: left;&quot;&gt;&lt;span style=&quot;background-color: initial;&quot;&gt;&amp;nbsp; {&lt;/span&gt;&lt;/div&gt;&lt;div style=&quot;text-align: left;&quot;&gt;&lt;span style=&quot;background-color: initial;&quot;&gt;&amp;nbsp; &amp;nbsp;userid: 123,&lt;/span&gt;&lt;/div&gt;&lt;div style=&quot;text-align: left;&quot;&gt;&lt;span style=&quot;background-color: initial;&quot;&gt;&amp;nbsp; &amp;nbsp;pass: ok,&lt;/span&gt;&lt;/div&gt;&lt;div style=&quot;text-align: left;&quot;&gt;&lt;span style=&quot;background-color: initial;&quot;&gt;&amp;nbsp; &amp;nbsp;standby: true,&lt;/span&gt;&lt;/div&gt;&lt;div style=&quot;text-align: left;&quot;&gt;&lt;span style=&quot;background-color: initial;&quot;&gt;&amp;nbsp; &amp;nbsp;txt: [&lt;/span&gt;&lt;/div&gt;&lt;div style=&quot;text-align: left;&quot;&gt;&lt;span style=&quot;background-color: initial;&quot;&gt;&amp;nbsp; &amp;nbsp; &amp;nbsp; {&lt;/span&gt;&lt;/div&gt;&lt;div style=&quot;text-align: left;&quot;&gt;&lt;span style=&quot;background-color: initial;&quot;&gt;&amp;nbsp; &amp;nbsp; &amp;nbsp; &amp;nbsp; &amp;nbsp;filename: &quot;ideb-batch-123.txt&quot;,&lt;/span&gt;&lt;/div&gt;&lt;div style=&quot;text-align: left;&quot;&gt;&lt;span style=&quot;background-color: initial;&quot;&gt;&amp;nbsp; &amp;nbsp; &amp;nbsp; &amp;nbsp; &amp;nbsp;bs64: &quot;dskjfghsdjkfghsdfhbjk&quot;&lt;/span&gt;&lt;/div&gt;&lt;div style=&quot;text-align: left;&quot;&gt;&lt;span style=&quot;background-color: initial;&quot;&gt;&amp;nbsp; &amp;nbsp; &amp;nbsp; }&lt;/span&gt;&lt;/div&gt;&lt;div style=&quot;text-align: left;&quot;&gt;&lt;span style=&quot;background-color: initial;&quot;&gt;&amp;nbsp; &amp;nbsp;]&lt;/span&gt;&lt;/div&gt;&lt;div style=&quot;text-align: left;&quot;&gt;&lt;span style=&quot;background-color: initial;&quot;&gt;&amp;nbsp; }&lt;/span&gt;&lt;/div&gt;&lt;div style=&quot;text-align: left;&quot;&gt;&lt;span style=&quot;background-color: initial;&quot;&gt;]&lt;/span&gt;&lt;/div&gt;&lt;div style=&quot;text-align: left;&quot;&gt;&lt;span style=&quot;background-color: initial;&quot;&gt;&lt;br&gt;&lt;/span&gt;&lt;/div&gt;&lt;div style=&quot;text-align: left;&quot;&gt;&lt;span style=&quot;background-color: initial;&quot;&gt;&lt;br&gt;&lt;/span&gt;&lt;/div&gt;&lt;div style=&quot;text-align: left;&quot;&gt;&lt;span style=&quot;background-color: initial;&quot;&gt;# response..&lt;/span&gt;&lt;/div&gt;&lt;div style=&quot;text-align: left;&quot;&gt;&lt;span style=&quot;background-color: initial;&quot;&gt;{&lt;/span&gt;&lt;/div&gt;&lt;div style=&quot;text-align: left;&quot;&gt;&lt;span style=&quot;background-color: initial;&quot;&gt;&amp;nbsp; status: true,&lt;/span&gt;&lt;/div&gt;&lt;div style=&quot;text-align: left;&quot;&gt;&lt;span style=&quot;background-color: initial;&quot;&gt;&amp;nbsp; message: &quot;success&quot;&lt;/span&gt;&lt;/div&gt;&lt;div style=&quot;text-align: left;&quot;&gt;&lt;span style=&quot;background-color: initial;&quot;&gt;}&lt;/span&gt;&lt;/div&gt;&lt;div style=&quot;text-align: left;&quot;&gt;&lt;span style=&quot;background-color: initial;&quot;&gt;&lt;br&gt;&lt;/span&gt;&lt;/div&gt;&lt;div style=&quot;text-align: left;&quot;&gt;&lt;span style=&quot;background-color: initial;&quot;&gt;-----------------------------------------------------------------&lt;/span&gt;&lt;/div&gt;&lt;div style=&quot;text-align: left;&quot;&gt;&lt;span style=&quot;background-color: initial;&quot;&gt;&lt;br&gt;&lt;/span&gt;&lt;/div&gt;&lt;div style=&quot;text-align: left;&quot;&gt;&lt;span style=&quot;background-color: initial;&quot;&gt;&lt;br&gt;&lt;/span&gt;&lt;/div&gt;&lt;div style=&quot;text-align: left;&quot;&gt;&lt;span style=&quot;background-color: initial;&quot;&gt;#hit on start process... (body) (SLA) (START)&lt;/span&gt;&lt;/div&gt;&lt;div style=&quot;text-align: left;&quot;&gt;&lt;span style=&quot;background-color: initial;&quot;&gt;{&lt;/span&gt;&lt;/div&gt;&lt;div style=&quot;text-align: left;&quot;&gt;&lt;span style=&quot;background-color: initial;&quot;&gt;&amp;nbsp; userid: 123,&lt;/span&gt;&lt;/div&gt;&lt;div style=&quot;text-align: left;&quot;&gt;&amp;nbsp; filename: jsdkjsj.txt,&lt;/div&gt;&lt;div style=&quot;text-align: left;&quot;&gt;&amp;nbsp; step: &quot;SR&quot;,&lt;/div&gt;&lt;div style=&quot;text-align: left;&quot;&gt;&amp;nbsp; timestamp: 16434783843&lt;/div&gt;&lt;div style=&quot;text-align: left;&quot;&gt;&lt;span style=&quot;background-color: initial;&quot;&gt;}&lt;/span&gt;&lt;/div&gt;&lt;div style=&quot;text-align: left;&quot;&gt;&lt;span style=&quot;background-color: initial;&quot;&gt;&lt;br&gt;&lt;/span&gt;&lt;/div&gt;&lt;div style=&quot;text-align: left;&quot;&gt;&lt;span style=&quot;background-color: initial;&quot;&gt;#hit result... (body)&lt;/span&gt;&lt;/div&gt;&lt;div style=&quot;text-align: left;&quot;&gt;&lt;span style=&quot;background-color: initial;&quot;&gt;{&lt;/span&gt;&lt;/div&gt;&lt;div style=&quot;text-align: left;&quot;&gt;&lt;span style=&quot;background-color: initial;&quot;&gt;&amp;nbsp; userid: 123,&lt;/span&gt;&lt;/div&gt;&lt;div style=&quot;text-align: left;&quot;&gt;&lt;span style=&quot;background-color: initial;&quot;&gt;&amp;nbsp; filename: sabdjisk.txt,&lt;/span&gt;&lt;/div&gt;&lt;div style=&quot;text-align: left;&quot;&gt;&amp;nbsp; result: &quot;&quot;,&lt;/div&gt;&lt;div style=&quot;text-align: left;&quot;&gt;&lt;span style=&quot;background-color: initial;&quot;&gt;&amp;nbsp; ref_code: 37437883&lt;/span&gt;&lt;/div&gt;&lt;div style=&quot;text-align: left;&quot;&gt;&lt;span style=&quot;background-color: initial;&quot;&gt;}&lt;/span&gt;&lt;/div&gt;&lt;div style=&quot;text-align: left;&quot;&gt;&lt;span style=&quot;background-color: initial;&quot;&gt;&lt;br&gt;&lt;/span&gt;&lt;/div&gt;&lt;div style=&quot;text-align: left;&quot;&gt;&lt;span style=&quot;background-color: initial;&quot;&gt;#hit on background process... (body) (SLA) (END)&lt;/span&gt;&lt;/div&gt;&lt;div style=&quot;text-align: left;&quot;&gt;&lt;span style=&quot;background-color: initial;&quot;&gt;{&lt;/span&gt;&lt;/div&gt;&lt;div style=&quot;text-align: left;&quot;&gt;&lt;span style=&quot;background-color: initial;&quot;&gt;&amp;nbsp; userid: 123,&lt;/span&gt;&lt;/div&gt;&lt;div style=&quot;text-align: left;&quot;&gt;&lt;span style=&quot;background-color: initial;&quot;&gt;&amp;nbsp; filename: hsdfjhsd.txt,&lt;/span&gt;&lt;/div&gt;&lt;div style=&quot;text-align: left;&quot;&gt;&lt;span style=&quot;background-color: initial;&quot;&gt;&amp;nbsp; step: &quot;ER&quot;,&lt;/span&gt;&lt;/div&gt;&lt;div style=&quot;text-align: left;&quot;&gt;&lt;span style=&quot;background-color: initial;&quot;&gt;&amp;nbsp; timestamp: 16898239893&lt;/span&gt;&lt;/div&gt;&lt;div style=&quot;text-align: left;&quot;&gt;&lt;span style=&quot;background-color: initial;&quot;&gt;}&lt;/span&gt;&lt;/div&gt;" style="text;html=1;strokeColor=none;fillColor=none;align=center;verticalAlign=middle;whiteSpace=wrap;rounded=0;" vertex="1" parent="1">
          <mxGeometry x="440" y="20" width="300" height="790" as="geometry" />
        </mxCell>
        <mxCell id="tp16z03s1btoaDQK9-HY-6" value="&lt;br&gt;- jika standby true, maka refresh halaman sesuai refresh_rate&lt;br&gt;- jika standby false, maka setelah proses selesai langsung logout" style="text;html=1;strokeColor=none;fillColor=none;align=left;verticalAlign=middle;whiteSpace=wrap;rounded=0;" vertex="1" parent="1">
          <mxGeometry x="40" y="280" width="360" height="140" as="geometry" />
        </mxCell>
        <mxCell id="tp16z03s1btoaDQK9-HY-7" value="&lt;div&gt;CODE&lt;span style=&quot;&quot;&gt;	&lt;/span&gt;DESCRIPTION&lt;span style=&quot;&quot;&gt;	&lt;/span&gt;SEQ&lt;span style=&quot;&quot;&gt;	&lt;/span&gt;ACTIVE&lt;/div&gt;&lt;div&gt;&lt;br&gt;&lt;/div&gt;&lt;div&gt;QR&lt;span style=&quot;&quot;&gt;	&lt;/span&gt;Kombinasi masuk ke dalam antrian permintaan data&lt;span style=&quot;&quot;&gt;	&lt;/span&gt;1&lt;span style=&quot;&quot;&gt;	&lt;/span&gt;1&lt;/div&gt;&lt;div&gt;SR #&lt;span style=&quot;&quot;&gt;	&lt;/span&gt;Kombinasi mulai di proses permintaan data&lt;span style=&quot;&quot;&gt;	&lt;/span&gt;2&lt;span style=&quot;&quot;&gt;	&lt;/span&gt;1&lt;/div&gt;&lt;div&gt;ER #&lt;span style=&quot;&quot;&gt;	&lt;/span&gt;Kombinasi selesai di proses permintaan data&lt;span style=&quot;&quot;&gt;	&lt;/span&gt;3&lt;span style=&quot;&quot;&gt;	&lt;/span&gt;1&lt;/div&gt;&lt;div&gt;QAPV&lt;span style=&quot;&quot;&gt;	&lt;/span&gt;Kombinasi masuk ke dalam antrian persetujuan SPV&lt;span style=&quot;&quot;&gt;	&lt;/span&gt;4&lt;span style=&quot;&quot;&gt;	&lt;/span&gt;1&lt;/div&gt;&lt;div&gt;SAPV #&lt;span style=&quot;&quot;&gt;	&lt;/span&gt;Kombinasi mulai di proses persetujuan SPV&lt;span style=&quot;&quot;&gt;	&lt;/span&gt;5&lt;span style=&quot;&quot;&gt;	&lt;/span&gt;1&lt;/div&gt;&lt;div&gt;EAPV #&lt;span style=&quot;&quot;&gt;	&lt;/span&gt;Kombinasi selesai di proses persetujuan SPV&lt;span style=&quot;&quot;&gt;	&lt;/span&gt;6&lt;span style=&quot;&quot;&gt;	&lt;/span&gt;1&lt;/div&gt;&lt;div&gt;QDN&lt;span style=&quot;&quot;&gt;	&lt;/span&gt;Kombinasi masuk ke dalam antrian download IDeb&lt;span style=&quot;&quot;&gt;	&lt;/span&gt;7&lt;span style=&quot;&quot;&gt;	&lt;/span&gt;1&lt;/div&gt;&lt;div&gt;SDN #&lt;span style=&quot;&quot;&gt;	&lt;/span&gt;Kombinasi mulai di proses download IDeb&lt;span style=&quot;&quot;&gt;	&lt;/span&gt;8&lt;span style=&quot;&quot;&gt;	&lt;/span&gt;1&lt;/div&gt;&lt;div&gt;EDN #&lt;span style=&quot;&quot;&gt;	&lt;/span&gt;Kombinasi selesai di proses download IDeb&lt;span style=&quot;&quot;&gt;	&lt;/span&gt;9&lt;span style=&quot;&quot;&gt;	&lt;/span&gt;1&lt;/div&gt;&lt;div&gt;QEID&lt;span style=&quot;&quot;&gt;	&lt;/span&gt;Kombinasi masuk ke dalam antrian extract IDeb&lt;span style=&quot;&quot;&gt;	&lt;/span&gt;10&lt;span style=&quot;&quot;&gt;	&lt;/span&gt;1&lt;/div&gt;&lt;div&gt;SEID&lt;span style=&quot;&quot;&gt;	&lt;/span&gt;Kombinasi mulai di proses extract IDeb&lt;span style=&quot;&quot;&gt;	&lt;/span&gt;11&lt;span style=&quot;&quot;&gt;	&lt;/span&gt;1&lt;/div&gt;&lt;div&gt;EEID&lt;span style=&quot;&quot;&gt;	&lt;/span&gt;Kombinasi selesai di proses extract IDeb&lt;span style=&quot;&quot;&gt;	&lt;/span&gt;12&lt;span style=&quot;&quot;&gt;	&lt;/span&gt;1&lt;/div&gt;&lt;div&gt;QPRS&lt;span style=&quot;&quot;&gt;	&lt;/span&gt;Kombinasi masuk ke dalam antrian parsing data&lt;span style=&quot;&quot;&gt;	&lt;/span&gt;13&lt;span style=&quot;&quot;&gt;	&lt;/span&gt;1&lt;/div&gt;&lt;div&gt;SPRS&lt;span style=&quot;&quot;&gt;	&lt;/span&gt;Kombinasi mulai di proses parsing data&lt;span style=&quot;&quot;&gt;	&lt;/span&gt;14&lt;span style=&quot;&quot;&gt;	&lt;/span&gt;1&lt;/div&gt;&lt;div&gt;EPRS&lt;span style=&quot;&quot;&gt;	&lt;/span&gt;Kombinasi selesai di proses parsing data&lt;span style=&quot;&quot;&gt;	&lt;/span&gt;15&lt;span style=&quot;&quot;&gt;	&lt;/span&gt;1&lt;/div&gt;&lt;div&gt;QSCR&lt;span style=&quot;&quot;&gt;	&lt;/span&gt;Kombinasi masuk ke dalam antrian calc scoring&lt;span style=&quot;&quot;&gt;	&lt;/span&gt;16&lt;span style=&quot;&quot;&gt;	&lt;/span&gt;1&lt;/div&gt;&lt;div&gt;SSCR&lt;span style=&quot;&quot;&gt;	&lt;/span&gt;Kombinasi mulai di proses calc scoring&lt;span style=&quot;&quot;&gt;	&lt;/span&gt;17&lt;span style=&quot;&quot;&gt;	&lt;/span&gt;1&lt;/div&gt;&lt;div style=&quot;&quot;&gt;ESCR&lt;span style=&quot;&quot;&gt;	&lt;/span&gt;Kombinasi selesai di proses calc scoring&lt;span style=&quot;&quot;&gt;	&lt;/span&gt;18&lt;span style=&quot;&quot;&gt;	&lt;/span&gt;1&lt;/div&gt;" style="text;html=1;strokeColor=none;fillColor=none;align=left;verticalAlign=middle;whiteSpace=wrap;rounded=0;" vertex="1" parent="1">
          <mxGeometry x="40" y="450" width="350" height="330" as="geometry" />
        </mxCell>
      </root>
    </mxGraphModel>
  </diagram>
</mxfile>
